# xmcd
#
# Track frame offsets:
#	150
#	17782
#	33449
#	52598
#	68647
#	87449
#	106002
#	124543
#	143982
#	165554
#	176353
#	190465
#	210052
#	228956
#	248612
#	269986
#
# Disc length: 3745 seconds
#
# Revision: 1
# Processed by: cddbd v1.5.2PL0 Copyright (c) Steve Scherf et al.
# Submitted via: EasyCDDAExtractor 12.0.1.1
#
DISCID=cb0e9f10
DTITLE=Linda Ronstadt - 'Round Midnight [Cd1]
DYEAR=1990
DGENRE=Country
TTITLE0=What's New
TTITLE1=I've Got A Crush On You
TTITLE2=Guess I'll Hang My Tears Out To Dry
TTITLE3=Crazy He Calls Me
TTITLE4=Someone To Watch Over Me
TTITLE5=I Don't Stand A Ghost Of A Chance
TTITLE6=What'll I Do
TTITLE7=Lover Man (Oh Where Can You Be)
TTITLE8=Good-Bye
TTITLE9=When I Fall In Love
TTITLE10=Skylark
TTITLE11=It Never Entered My Mind
TTITLE12=Mean To Me
TTITLE13=When Your Lover Has Gone
TTITLE14=I'm A Fool To Want You
TTITLE15=You Took Advantage Of Me
EXTD=
EXTT0=
EXTT1=
EXTT2=
EXTT3=
EXTT4=
EXTT5=
EXTT6=
EXTT7=
EXTT8=
EXTT9=
EXTT10=
EXTT11=
EXTT12=
EXTT13=
EXTT14=
EXTT15=
PLAYORDER=
